<?xml version="1.0" standalone="no"?>
<!DOCTYPE svg PUBLIC "-//W3C//DTD SVG 20010904//EN"
 "http://www.w3.org/TR/2001/REC-SVG-20010904/DTD/svg10.dtd">
<svg version="1.0" xmlns="http://www.w3.org/2000/svg"
 width="96.000000pt" height="96.000000pt" viewBox="0 0 96.000000 96.000000"
 preserveAspectRatio="xMidYMid meet">
<metadata>
Created by potrace 1.14, written by Peter Selinger 2001-2017
</metadata>
<g transform="translate(0.000000,96.000000) scale(0.100000,-0.100000)"
fill="#000000" stroke="none">
<path d="M583 950 c-18 -4 -39 -12 -46 -19 -8 -6 -16 -9 -18 -6 -3 2 -35 7
-73 10 -53 5 -78 3 -114 -11 -108 -41 -212 -135 -260 -234 -23 -49 -26 -67
-27 -160 0 -116 11 -160 73 -288 39 -81 99 -155 146 -179 17 -9 59 -26 93 -38
79 -28 232 -28 308 -1 61 22 128 75 150 119 18 36 55 197 55 239 0 26 18 85
42 135 10 21 7 113 -7 182 -19 96 -106 216 -179 246 -38 16 -91 18 -143 5z"/>
</g>
</svg>
